<svg width="10" height="15" viewBox="0 0 10 15" fill="none" xmlns="http://www.w3.org/2000/svg">
<g clip-path="url(#clip0_571_91)">
<path d="M2.5 15C3.88 15 5 13.88 5 12.5V10H2.5C1.12 10 0 11.12 0 12.5C0 13.88 1.12 15 2.5 15Z" fill="#0ACF83"/>
<path d="M0 7.5C0 6.12 1.12 5 2.5 5H5V10H2.5C1.12 10 0 8.88 0 7.5Z" fill="#A259FF"/>
<path d="M0 2.5C0 1.12 1.12 0 2.5 0H5V5H2.5C1.12 5 0 3.88 0 2.5Z" fill="#F24E1E"/>
<path d="M5 0H7.5C8.88 0 10 1.12 10 2.5C10 3.88 8.88 5 7.5 5H5V0Z" fill="#FF7262"/>
<path d="M10 7.5C10 8.88 8.88 10 7.5 10C6.12 10 5 8.88 5 7.5C5 6.12 6.12 5 7.5 5C8.88 5 10 6.12 10 7.5Z" fill="#1ABCFE"/>
</g>
<defs>
<clipPath id="clip0_571_91">
<rect width="10" height="15" fill="white"/>
</clipPath>
</defs>
</svg>
